<svg xmlns="http://www.w3.org/2000/svg" width="70" height="70" fill="none" xmlns:v="https://vecta.io/nano"><path d="M67.316 48.339L48.847 29.734l2.05-10.096c.529.207 1.091.314 1.659.319h.014c2.608.031 4.747-2.058 4.778-4.666s-2.059-4.747-4.667-4.778-4.747 2.058-4.778 4.666a4.72 4.72 0 0 0 .273 1.639l-10.85 1.324L19.628.35c-.217-.222-.514-.348-.824-.35s-.6.124-.817.34l-3.309 3.29c-.455.456-.455 1.194 0 1.65l1.78 1.806a32.69 32.69 0 0 0 5.511 38.638c.093.089.201.162.32.214a6.77 6.77 0 0 0-.114 1.197v13.533h-14A5.84 5.84 0 0 0 2.342 66.5v2.333c0 .644.522 1.167 1.167 1.167h53.667c.644 0 1.167-.522 1.167-1.167V66.5a5.84 5.84 0 0 0-5.833-5.833h-14v-5.998a32.88 32.88 0 0 0 6.669.7c5.377-.006 10.669-1.346 15.4-3.901l1.79 1.8c.217.221.514.348.824.35s.599-.124.817-.34l3.309-3.29c.455-.456.455-1.194 0-1.65zM50.925 13.635c.914-.909 2.391-.905 3.3.009s.905 2.391-.009 3.3c-.437.435-1.029.679-1.646.679h-.007c-1.289-.007-2.328-1.057-2.321-2.345.003-.617.251-1.207.688-1.642h-.005zm-2.746 7.666l-1.309 6.444-2.571-2.586 3.88-3.857zm-1.325-1.973l-4.2 4.176-3.249-3.267 7.449-.909zM52.509 63a3.5 3.5 0 0 1 3.5 3.5v1.167H4.676V66.5a3.5 3.5 0 0 1 3.5-3.5h44.333zm-16.333-4.667v2.333H24.509v-2.333h11.667zM24.509 56v-8.867c0-2.83 2.617-5.133 5.833-5.133s5.833 2.303 5.833 5.133V56H24.509zm14-3.71v-5.157c0-4.117-3.663-7.467-8.167-7.467a8.31 8.31 0 0 0-7.177 3.907 30.34 30.34 0 0 1-4.985-34.753l40.692 40.925c-6.283 3.196-13.486 4.096-20.363 2.544zm24.695-1.496l-1.644-1.653L18.792 6.116l-1.651-1.654 1.651-1.645L36.15 20.272c.008 0 .013.015.021.021l28.688 28.856-1.656 1.645z" fill="#212121"/><path d="M30.353 44.333h-.01a3.5 3.5 0 1 0-.011 7h.011a3.5 3.5 0 0 0 .01-7zm.817 4.327c-.22.218-.517.341-.827.34-.644-.003-1.164-.528-1.161-1.173.002-.308.125-.604.344-.821s.51-.338.817-.34c.644.003 1.164.528 1.16 1.173-.002.308-.125.604-.344.821h.011z" fill="#2196f3"/></svg>