<svg xmlns="http://www.w3.org/2000/svg" width="70" height="70" fill="none" xmlns:v="https://vecta.io/nano"><g clip-path="url(#A)"><g fill="#2196f3"><path d="M32.65 32.735h2.332V43.23H32.65V32.735zm9.328 4.664h2.332v5.83h-2.332v-5.83zm-18.657 3.499h2.332v2.332h-2.332v-2.332zm-6.996-1.167h2.332v3.498h-2.332v-3.498z"/></g><path d="M3.498 61.887h55.971a3.5 3.5 0 0 0 3.498-3.498v-4.664a3.5 3.5 0 0 0-3.498-3.498h-1.166V21.147l6.623-6.274a3.52 3.52 0 0 0 4.404-1.091c1.007-1.388.865-3.299-.334-4.525a3.52 3.52 0 0 0-5.703 3.947l-4.991 4.731v-2.69a3.5 3.5 0 0 0-3.498-3.498H8.162a3.5 3.5 0 0 0-3.498 3.498v34.982H3.498A3.5 3.5 0 0 0 0 53.724v4.664a3.5 3.5 0 0 0 3.498 3.498zM66.465 10.58c.644 0 1.166.522 1.166 1.166s-.522 1.166-1.166 1.166-1.166-.522-1.166-1.166.522-1.166 1.166-1.166zM6.996 15.244c0-.644.522-1.166 1.166-1.166h46.642c.644 0 1.166.522 1.166 1.166v4.897l-2.332 2.216v-4.781c0-.644-.522-1.166-1.166-1.166H10.495c-.644 0-1.166.522-1.166 1.166v29.151c0 .644.522 1.166 1.166 1.166h41.978c.644 0 1.166-.522 1.166-1.166V25.565l2.332-2.21v26.871H6.996V15.244zm10.494 15.159a3.5 3.5 0 0 0-1.796 6.506 3.5 3.5 0 0 0 4.218-.494l4.053 2.034c.471.236 1.042.125 1.392-.268l8.616-9.693 8.47 6.347c.454.341 1.089.304 1.501-.086l7.361-6.973v17.787H11.661V18.742h39.646v5.82l-8.25 7.813-8.541-6.403c-.485-.363-1.168-.295-1.571.158l-8.735 9.828-3.265-1.633c.024-.14.039-.281.044-.423a3.5 3.5 0 0 0-3.498-3.498zm1.166 3.498c0 .644-.522 1.166-1.166 1.166s-1.166-.522-1.166-1.166.522-1.166 1.166-1.166 1.166.522 1.166 1.166zm6.996 18.657h11.661v1.166c0 .644-.522 1.166-1.166 1.166h-9.328c-.644 0-1.166-.522-1.166-1.166v-1.166zM2.332 53.724c0-.644.522-1.166 1.166-1.166h19.823v1.166a3.5 3.5 0 0 0 3.498 3.498h9.328a3.5 3.5 0 0 0 3.498-3.498v-1.166h19.823c.644 0 1.166.522 1.166 1.166v4.664c0 .644-.522 1.166-1.166 1.166H3.498c-.644 0-1.166-.522-1.166-1.166v-4.664z" fill="#212121"/></g><defs><clipPath id="A"><path fill="#fff" d="M0 0h70v70H0z"/></clipPath></defs></svg>